<svg xmlns="http://www.w3.org/2000/svg" width="51.337" height="73.153" viewBox="0 0 51.337 73.153">
  <g id="Group_826" data-name="Group 826" transform="translate(-357.501 -10793.501)">
    <path id="Path_4530" data-name="Path 4530" d="M26.992,11h-8.9A5.088,5.088,0,0,0,13,16.088V65.7a5.088,5.088,0,0,0,5.088,5.088H56.249A5.088,5.088,0,0,0,61.337,65.7V16.088A5.088,5.088,0,0,0,56.249,11h-8.9" transform="translate(346.001 10794.368)" fill="none" stroke="#ff9a22" stroke-linecap="round" stroke-linejoin="round" stroke-width="3"/>
    <circle id="Ellipse_9" data-name="Ellipse 9" cx="3.941" cy="3.941" r="3.941" transform="translate(379.495 10795.001)" fill="none" stroke="#ff9a22" stroke-linecap="round" stroke-linejoin="round" stroke-width="3"/>
    <path id="Path_4531" data-name="Path 4531" d="M29.36,9H39.537a6.36,6.36,0,0,1,6.36,6.36H23A6.36,6.36,0,0,1,29.36,9Z" transform="translate(348.721 10793.824)" fill="none" stroke="#ff9a22" stroke-linecap="round" stroke-linejoin="round" stroke-width="3"/>
    <line id="Line_6" data-name="Line 6" x2="15.765" transform="translate(380.283 10825.742)" fill="none" stroke="#ff9a22" stroke-linecap="round" stroke-linejoin="round" stroke-width="3"/>
    <line id="Line_7" data-name="Line 7" x2="15.765" transform="translate(380.283 10834.413)" fill="none" stroke="#ff9a22" stroke-linecap="round" stroke-linejoin="round" stroke-width="3"/>
    <line id="Line_8" data-name="Line 8" x2="15.765" transform="translate(380.283 10843.872)" fill="none" stroke="#ff9a22" stroke-linecap="round" stroke-linejoin="round" stroke-width="3"/>
  </g>
</svg>
